<?xml version="1.0" standalone="no"?>
<!DOCTYPE svg PUBLIC "-//W3C//DTD SVG 20010904//EN"
 "http://www.w3.org/TR/2001/REC-SVG-20010904/DTD/svg10.dtd">
<svg version="1.0" xmlns="http://www.w3.org/2000/svg"
 width="275.000000pt" height="275.000000pt" viewBox="0 0 275.000000 275.000000"
 preserveAspectRatio="xMidYMid meet">
<metadata>
Created by potrace 1.14, written by Peter Selinger 2001-2017
</metadata>
<g transform="translate(0.000000,275.000000) scale(0.100000,-0.100000)"
fill="#000000" stroke="none">
<path d="M149 1794 c-54 -16 -111 -70 -122 -116 -5 -18 -8 -66 -8 -107 1 -63
5 -81 29 -118 15 -23 31 -43 36 -43 4 0 22 -12 39 -26 30 -25 35 -26 124 -21
53 3 100 10 109 17 11 10 14 32 12 104 l-3 91 -57 3 -58 3 0 -30 c0 -24 5 -32
25 -37 14 -3 25 -11 26 -18 0 -6 2 -20 4 -31 7 -37 -9 -48 -71 -46 -78 1 -109
15 -129 57 -21 45 -21 133 1 179 31 67 119 99 202 76 24 -7 35 -6 47 5 17 18
4 53 -20 55 -28 3 -33 4 -41 12 -12 11 -95 7 -145 -9z m51 -18 c-10 -13 -40
-12 -40 1 0 3 7 3 15 0 8 -4 17 -2 20 3 4 6 9 10 12 10 3 0 0 -6 -7 -14z m-73
-38 c-8 -13 -21 -22 -27 -20 -8 2 -10 -3 -7 -12 4 -9 -1 -19 -9 -24 -9 -5 -16
-13 -16 -18 -1 -21 -11 -32 -23 -28 -32 13 44 113 94 123 2 1 -3 -9 -12 -21z
m-62 -128 c3 -5 1 -10 -5 -10 -6 0 -8 -5 -3 -12 4 -7 8 -29 9 -48 1 -45 25
-91 64 -124 35 -29 34 -32 -4 -12 -42 21 -87 86 -86 121 1 16 1 32 0 35 -11
30 -9 60 4 60 8 0 18 -4 21 -10z m285 -90 c0 -33 -15 -48 -24 -24 -3 8 -2 12
4 9 6 -3 10 -1 10 4 0 6 -5 11 -11 11 -5 0 -7 5 -4 10 3 6 1 10 -5 10 -6 0 -9
4 -5 10 11 18 35 -2 35 -30z"/>
<path d="M925 1786 c-2 -12 -11 -79 -20 -151 -9 -71 -20 -156 -24 -187 -8 -62
-1 -78 35 -78 22 0 24 5 39 115 8 62 18 170 17 178 -1 4 1 7 5 6 5 0 29 -42
54 -92 26 -51 53 -93 62 -95 13 -3 51 65 100 178 10 23 11 21 19 -30 4 -30 10
-93 13 -140 8 -109 9 -110 46 -110 l31 0 -6 78 c-4 42 -14 120 -22 172 -8 52
-17 111 -20 130 -13 82 -47 67 -109 -47 -27 -51 -53 -93 -57 -93 -4 0 -25 33
-47 73 -53 96 -65 110 -90 112 -14 1 -23 -5 -26 -19z m305 -31 c0 -26 -23 -35
-36 -13 -4 6 -3 8 4 4 6 -3 13 -2 17 4 3 5 1 10 -5 10 -6 0 -8 5 -5 10 11 18
25 10 25 -15z m-250 -15 c0 -5 -4 -10 -9 -10 -6 0 -13 5 -16 10 -3 6 1 10 9
10 9 0 16 -4 16 -10z m260 -35 c0 -8 -5 -15 -11 -15 -6 0 -17 7 -25 15 -14 13
-13 15 10 15 16 0 26 -6 26 -15z m-280 -15 c0 -5 -4 -10 -10 -10 -5 0 -10 5
-10 10 0 6 5 10 10 10 6 0 10 -4 10 -10z m-10 -41 c0 -6 -4 -7 -10 -4 -5 3
-10 11 -10 16 0 6 5 7 10 4 6 -3 10 -11 10 -16z m206 -1 c-3 -7 -9 -21 -12
-30 -4 -10 -10 -18 -15 -18 -5 0 -6 -6 -3 -14 5 -14 -20 -46 -36 -46 -5 0 -12
5 -15 10 -4 6 -2 9 3 8 6 -2 10 1 10 6 0 5 4 12 9 15 11 8 32 42 39 64 4 9 11
17 16 17 5 0 7 -6 4 -12z m-91 -48 c3 -6 -1 -7 -9 -4 -18 7 -21 14 -7 14 6 0
13 -4 16 -10z m-133 -37 c-10 -4 -10 -8 -1 -19 9 -11 9 -18 2 -25 -8 -8 -13
-5 -18 10 -7 24 1 41 18 40 8 0 8 -2 -1 -6z m325 -15 c-3 -8 -6 -5 -6 6 -1 11
2 17 5 13 3 -3 4 -12 1 -19z m-327 -72 c0 -8 -4 -18 -10 -21 -5 -3 -10 3 -10
14 0 12 5 21 10 21 6 0 10 -6 10 -14z m346 -51 c1 -8 -2 -17 -7 -21 -5 -3 -9
7 -9 22 0 27 12 26 16 -1z m-356 -17 c0 -16 -3 -19 -11 -11 -6 6 -8 16 -5 22
11 17 16 13 16 -11z"/>
<path d="M1538 1795 c-65 -16 -112 -55 -143 -119 -46 -94 -36 -191 28 -256 51
-52 82 -61 178 -50 88 10 111 24 102 60 -6 24 -3 23 -45 6 -62 -26 -174 -1
-198 44 -30 56 -20 169 19 213 35 41 128 61 182 39 35 -14 52 1 37 34 -8 16
-22 25 -47 29 -20 4 -43 7 -51 9 -9 2 -37 -2 -62 -9z m132 -25 c0 -5 -2 -10
-4 -10 -3 0 -8 5 -11 10 -3 6 -1 10 4 10 6 0 11 -4 11 -10z m-215 -59 c-3 -6
-11 -11 -16 -11 -5 0 -4 6 3 14 14 16 24 13 13 -3z m-38 -76 c0 -8 -4 -12 -9
-9 -5 3 -6 10 -3 15 9 13 12 11 12 -6z m0 -40 c0 -8 -6 -15 -14 -15 -14 0 -17
12 -6 23 11 11 20 8 20 -8z m-3 -41 c4 -10 1 -14 -6 -12 -15 5 -23 28 -10 28
5 0 13 -7 16 -16z m12 -51 c3 -50 62 -93 128 -93 9 0 16 -5 16 -11 0 -6 -8 -8
-19 -4 -11 3 -30 8 -43 10 -48 10 -75 27 -91 59 -12 26 -13 36 -4 46 9 10 9
11 0 6 -6 -3 -15 -1 -18 5 -5 7 0 10 11 7 11 -2 19 -12 20 -25z m224 -103
c-14 -4 -36 -8 -50 -8 -22 0 -22 1 5 8 17 4 39 8 50 8 16 0 15 -2 -5 -8z"/>
<path d="M442 1598 c2 -182 4 -204 21 -221 10 -10 24 -16 30 -14 12 4 12 11 7
117 -5 99 -14 91 111 88 77 -3 112 -7 118 -17 5 -7 8 -44 8 -82 0 -76 4 -85
46 -93 22 -4 27 -1 28 17 4 130 3 205 -4 277 -5 47 -9 94 -10 105 -2 14 -9 20
-27 20 -25 0 -25 -1 -24 -77 2 -70 0 -77 -20 -82 -32 -8 -199 -6 -212 2 -6 4
-11 27 -11 52 0 108 0 110 -33 110 l-30 0 2 -202z m338 150 c0 -25 -3 -29 -10
-18 -13 20 -13 50 0 50 6 0 10 -15 10 -32z m-303 -58 c-1 -12 -5 -16 -10 -11
-5 5 -6 14 -3 20 11 16 15 13 13 -9z m306 5 c-3 -9 -8 -14 -10 -11 -3 3 -2 9
2 15 9 16 15 13 8 -4z m-305 -60 c1 -14 -2 -25 -6 -25 -4 0 -8 11 -8 25 -2 33
11 33 14 0z m152 -35 c0 -5 -27 -9 -60 -8 -33 1 -60 6 -60 11 0 5 20 7 45 6
24 -2 47 0 51 4 8 8 24 -1 24 -13z m45 9 c10 -14 1 -21 -19 -13 -9 3 -13 10
-10 15 7 12 21 11 29 -2z m48 2 c4 10 6 9 6 -3 1 -11 -6 -16 -19 -15 -21 1
-25 9 -13 20 4 4 10 2 14 -4 5 -8 8 -7 12 2z m67 -1 c0 -5 -5 -10 -11 -10 -5
0 -7 5 -4 10 3 6 8 10 11 10 2 0 4 -4 4 -10z m-308 -77 c-2 -29 -8 -53 -12
-53 -7 0 -7 81 -1 120 1 2 5 0 9 -5 5 -6 7 -34 4 -62z m318 43 c0 -3 -4 -8
-10 -11 -5 -3 -10 -1 -10 4 0 6 5 11 10 11 6 0 10 -2 10 -4z m-30 -35 c0 -6
-4 -13 -10 -16 -5 -3 -10 1 -10 9 0 9 5 16 10 16 6 0 10 -4 10 -9z m24 -13
c-5 -7 -9 -35 -9 -62 0 -35 -4 -51 -15 -53 -12 -4 -12 -3 -1 5 8 6 9 12 3 16
-13 8 -6 84 9 103 14 16 24 10 13 -9z m-316 -93 c1 -19 -2 -35 -7 -35 -7 0 -8
54 -2 68 4 10 8 -3 9 -33z"/>
<path d="M1497 1333 c-13 -13 -8 -160 6 -172 14 -11 27 -5 27 12 0 5 -7 6 -16
3 -8 -3 -13 -2 -10 3 7 11 11 149 5 156 -3 3 -9 2 -12 -2z"/>
<path d="M109 1318 c-30 -10 -59 -55 -42 -66 6 -4 13 -18 16 -32 3 -19 5 -16
6 12 1 46 30 70 74 61 22 -5 29 -3 25 7 -6 19 -48 29 -79 18z m-21 -38 c-7
-10 -14 -17 -17 -15 -4 4 18 35 25 35 2 0 -1 -9 -8 -20z"/>
<path d="M616 1323 c-3 -3 -6 -41 -6 -83 l0 -77 44 -1 c31 -1 49 4 61 18 11
12 13 20 7 20 -7 0 -12 5 -12 11 0 5 6 7 13 3 8 -5 8 -2 -2 9 -7 9 -10 17 -6
17 4 0 2 7 -5 15 -7 9 -20 15 -29 14 -33 -3 -41 2 -41 25 0 26 -12 40 -24 29z
m11 -55 c-2 -13 -4 -5 -4 17 -1 22 1 32 4 23 2 -10 2 -28 0 -40z m77 -51 c1
-28 -3 -33 -23 -35 -14 -1 -32 6 -41 16 -15 16 -15 19 -1 32 15 15 53 29 60
24 2 -2 4 -19 5 -37z"/>
<path d="M870 1310 c0 -5 5 -10 10 -10 6 0 10 5 10 10 0 6 -4 10 -10 10 -5 0
-10 -4 -10 -10z"/>
<path d="M981 1240 c1 -44 6 -83 12 -87 5 -3 8 11 5 38 l-5 44 49 -3 c47 -4
48 -4 48 -38 0 -24 5 -34 15 -34 13 0 15 11 11 68 -7 88 -8 92 -18 92 -4 0 -8
-13 -8 -30 0 -30 -5 -33 -45 -31 l-20 1 20 -9 c18 -9 17 -10 -8 -10 -16 -1
-26 3 -22 9 3 6 1 10 -5 10 -6 0 -10 6 -9 13 3 27 -2 47 -12 47 -6 0 -9 -30
-8 -80z m126 -42 c-3 -8 -6 -5 -6 6 -1 11 2 17 5 13 3 -3 4 -12 1 -19z"/>
<path d="M1293 1286 c-13 -14 -19 -26 -14 -26 5 0 13 -9 16 -20 6 -19 26 -29
24 -12 -3 18 3 46 8 34 2 -6 9 -10 14 -6 14 8 11 24 -5 24 -8 0 -16 7 -18 16
-2 12 -8 10 -25 -10z"/>
<path d="M217 1273 c-4 -3 -2 -15 4 -26 8 -14 8 -18 0 -13 -13 9 -14 -14 -2
-47 8 -21 16 -24 54 -24 41 0 44 1 41 26 -1 14 -2 38 -3 54 -2 42 -21 32 -21
-12 0 -43 -26 -65 -42 -36 -5 8 -15 12 -21 9 -8 -5 -8 -3 1 7 21 23 10 84 -11
62z m28 -93 c3 -5 1 -10 -4 -10 -6 0 -11 5 -11 10 0 6 2 10 4 10 3 0 8 -4 11
-10z"/>
<path d="M410 1273 c0 -5 -15 -8 -32 -5 -32 4 -32 4 -13 -13 14 -12 15 -15 4
-12 -13 4 -16 -3 -15 -33 2 -43 9 -56 26 -45 8 5 6 13 -7 28 -10 11 -12 17 -5
13 8 -5 12 0 12 14 0 28 29 38 46 15 9 -13 14 -14 14 -5 0 7 3 11 6 8 3 -3 -1
-16 -8 -28 -11 -19 -11 -23 1 -28 11 -4 11 -6 0 -13 -11 -7 -11 -9 2 -9 35 0
28 83 -8 108 -13 8 -23 10 -23 5z"/>
<path d="M500 1270 c-12 -8 -12 -10 2 -15 10 -4 21 -4 26 -1 6 3 12 -1 16 -9
4 -11 -1 -15 -19 -15 -29 0 -47 -27 -34 -52 7 -13 21 -17 54 -16 25 0 45 4 45
9 0 5 -4 9 -9 9 -5 0 -11 11 -13 25 -3 13 -1 22 3 19 14 -8 11 10 -5 31 -15
21 -45 28 -66 15z m46 -79 c-8 -13 -36 -15 -36 -3 0 4 5 13 12 20 14 14 34 0
24 -17z"/>
<path d="M757 1273 c-14 -13 -6 -22 21 -25 27 -4 23 -8 -23 -23 -21 -6 -19
-53 3 -58 29 -8 82 -6 82 3 0 5 -4 10 -9 12 -4 2 -12 14 -16 27 -5 15 -4 21 3
17 14 -9 9 19 -8 38 -10 14 -15 14 -21 4 -7 -10 -9 -10 -9 0 0 13 -13 16 -23
5z m41 -71 c2 -7 -4 -15 -13 -18 -20 -8 -27 -1 -19 20 7 18 25 17 32 -2z"/>
<path d="M869 1278 c-6 -11 -7 -59 -3 -85 8 -55 24 -37 24 27 0 33 -4 60 -10
60 -5 0 -11 -1 -11 -2z"/>
<path d="M1158 1263 c-22 -26 -26 -45 -17 -71 12 -33 33 -22 33 17 1 24 8 38
26 50 13 9 21 11 17 4 -4 -6 -3 -15 3 -18 6 -4 10 -21 8 -38 -1 -26 -6 -32
-22 -32 -12 0 -22 -4 -23 -10 -3 -12 37 -7 55 7 6 6 12 25 12 43 0 56 -59 86
-92 48z"/>
<path d="M1387 1268 c-24 -13 -30 -57 -12 -84 19 -29 85 -35 85 -8 0 8 -5 12
-11 9 -16 -10 -59 4 -59 18 0 9 10 12 28 10 39 -5 60 11 45 34 -6 10 -16 17
-22 16 -6 -2 -11 1 -11 5 0 11 -24 11 -43 0z m70 -23 c5 -4 2 -5 -4 -1 -7 4
-13 3 -13 -3 0 -11 -39 -6 -52 7 -4 4 8 7 27 7 19 -1 38 -5 42 -10z"/>
<path d="M62 1220 c0 -14 2 -19 5 -12 2 6 2 18 0 25 -3 6 -5 1 -5 -13z"/>
<path d="M150 1224 c0 -8 5 -14 10 -14 15 0 12 -30 -2 -31 -17 -2 -18 -2 -56
4 -18 3 -30 1 -26 -4 3 -5 9 -7 14 -4 4 3 10 -1 13 -9 3 -8 19 -12 43 -11 32
1 39 5 45 28 4 15 3 29 -2 33 -5 3 -7 9 -5 13 3 4 -4 8 -15 8 -10 1 -19 -5
-19 -13z"/>
<path d="M1296 1201 c-11 -18 6 -41 31 -41 14 0 22 4 18 10 -4 6 -14 9 -22 8
-9 -2 -18 4 -20 12 -4 13 -3 13 6 0 9 -13 11 -13 11 3 0 18 -15 23 -24 8z"/>
<path d="M1763 1053 c-8 -3 -13 -25 -13 -59 0 -34 4 -53 10 -49 6 3 10 1 10
-4 0 -6 -6 -11 -12 -11 -9 0 -8 -4 2 -10 12 -8 12 -10 1 -10 -11 0 -11 -3 -1
-15 7 -8 19 -15 27 -15 12 0 13 3 5 13 -6 7 -12 47 -14 88 -2 55 -6 75 -15 72z
m4 -75 c-3 -8 -6 -5 -6 6 -1 11 2 17 5 13 3 -3 4 -12 1 -19z"/>
<path d="M1820 981 c0 -83 6 -101 32 -101 17 0 18 3 8 15 -7 8 -17 12 -24 8
-6 -4 -4 2 4 12 9 11 10 16 3 11 -7 -4 -13 -3 -13 3 0 5 6 12 13 14 9 4 8 8
-3 16 -10 7 -11 11 -2 11 7 0 12 15 12 40 0 29 -4 40 -15 40 -12 0 -15 -14
-15 -69z m17 7 c-3 -8 -6 -5 -6 6 -1 11 2 17 5 13 3 -3 4 -12 1 -19z"/>
<path d="M75 985 c-4 -30 -5 -64 -2 -75 3 -11 1 -18 -4 -14 -5 3 -9 0 -9 -5 0
-6 7 -11 16 -11 12 0 15 7 12 30 -3 17 -1 30 4 30 4 0 8 12 9 28 0 26 1 25 17
-10 9 -21 20 -38 24 -38 4 0 16 17 27 38 l20 37 2 -35 c1 -19 2 -39 4 -45 1
-5 3 -16 3 -22 1 -7 7 -13 13 -13 14 0 2 133 -12 138 -5 2 -7 8 -3 13 3 5 1 9
-5 9 -6 0 -18 -16 -27 -35 -9 -19 -18 -35 -19 -35 -2 0 -13 16 -25 35 -12 19
-25 35 -30 35 -5 0 -12 -25 -15 -55z"/>
<path d="M1500 1011 c-20 -19 -30 -40 -30 -59 0 -32 26 -70 50 -73 38 -4 80 2
80 12 0 8 -15 10 -43 7 -28 -3 -44 -1 -45 6 -1 6 -5 27 -8 47 -7 43 12 63 62
63 43 0 39 20 -4 24 -25 3 -39 -4 -62 -27z"/>
<path d="M1346 1008 c-10 -14 -12 -24 -5 -28 5 -4 11 -27 12 -51 2 -37 5 -44
25 -47 12 -2 22 1 22 6 0 15 -28 22 -33 9 -3 -7 -3 5 -1 27 1 21 5 41 8 44 3
3 -2 14 -11 25 -10 11 -12 17 -5 13 7 -4 12 -1 12 8 0 22 -6 20 -24 -6z"/>
<path d="M267 993 c-15 -14 -5 -22 23 -19 17 2 33 -1 36 -6 3 -4 2 -8 -3 -7
-4 1 -23 -4 -40 -11 -25 -9 -33 -18 -33 -36 0 -25 16 -31 73 -32 30 0 34 9 12
28 -8 7 -15 20 -14 29 0 12 2 11 9 -4 8 -18 9 -18 9 5 0 14 -3 31 -7 38 -10
14 -55 25 -65 15z m35 -85 c-6 -6 -16 -7 -23 -3 -9 6 -7 12 7 22 21 15 34 -1
16 -19z"/>
<path d="M415 990 c-3 -5 -13 -6 -23 -3 -9 3 -14 3 -10 -2 4 -4 3 -16 -3 -26
-8 -15 -6 -19 7 -19 11 0 14 5 10 17 -4 10 -4 14 -1 11 4 -4 18 -3 31 2 13 5
23 6 23 2 -1 -4 -1 -14 0 -22 1 -13 2 -13 11 0 5 8 10 10 10 4 0 -6 -3 -14 -7
-17 -13 -13 -9 -57 5 -57 9 0 12 7 9 20 -3 11 -2 20 2 20 4 0 6 13 3 29 -3 22
-12 32 -33 40 -17 6 -31 6 -34 1z"/>
<path d="M526 993 c-14 -14 -4 -22 24 -19 37 4 29 -10 -16 -29 -29 -12 -33
-17 -25 -37 7 -19 16 -23 55 -24 48 -1 55 5 34 28 -16 17 -23 52 -9 43 13 -7
14 5 3 21 -9 13 -57 26 -66 17z m40 -82 c-8 -13 -36 -15 -36 -3 0 4 5 13 12
20 14 14 34 0 24 -17z"/>
<path d="M649 990 c-13 -8 -16 -24 -15 -79 1 -38 4 -72 6 -75 3 -3 20 -7 37
-10 41 -8 84 24 65 47 -7 8 -25 18 -40 22 l-27 7 23 9 c18 7 22 14 17 30 -5
14 -4 19 4 15 7 -5 9 -1 5 8 -4 10 -1 16 7 16 7 0 9 3 6 6 -4 4 -13 1 -22 -6
-13 -11 -14 -10 -9 4 5 12 0 16 -17 16 -13 0 -31 -5 -40 -10z m47 -41 c1 -21
-3 -25 -18 -22 -10 3 -18 14 -18 25 0 12 -4 17 -12 12 -6 -4 -8 -3 -5 3 4 6
17 10 29 9 18 -1 23 -7 24 -27z m13 -83 c9 -11 5 -14 -22 -18 -29 -3 -33 -1
-29 14 5 21 35 24 51 4z"/>
<path d="M763 985 c-20 -14 -22 -68 -3 -89 19 -23 99 -18 84 5 -3 5 -10 7 -15
3 -16 -9 -59 5 -59 19 0 9 11 12 35 9 26 -3 36 0 41 13 14 35 -48 65 -83 40z
m63 -26 c0 -10 -8 -14 -21 -13 -11 1 -23 3 -27 3 -4 1 -5 7 -3 14 8 18 51 15
51 -4z"/>
<path d="M893 993 c-23 -4 -25 -9 -25 -71 -1 -42 17 -63 25 -30 3 13 5 37 3
54 -2 28 0 31 19 24 15 -5 21 -18 23 -49 4 -57 32 -58 32 -1 0 27 5 43 15 47
21 8 24 3 33 -48 8 -48 25 -55 30 -13 8 64 -27 106 -69 83 -15 -8 -24 -8 -32
0 -11 11 -15 12 -54 4z m131 -19 c9 -8 16 -21 16 -27 0 -7 -5 -4 -11 5 -5 10
-17 22 -27 27 -9 6 -12 11 -5 11 6 0 19 -7 27 -16z m13 -76 c-3 -7 -5 -2 -5
12 0 14 2 19 5 13 2 -7 2 -19 0 -25z"/>
<path d="M1093 985 c-10 -7 -15 -17 -11 -21 4 -4 3 -13 -2 -19 -17 -20 26 -65
61 -65 18 0 29 5 29 14 0 9 -7 12 -20 9 -11 -3 -26 0 -33 6 -8 6 -17 8 -21 4
-4 -4 -5 -1 -1 7 3 10 19 15 42 15 28 0 38 5 41 18 4 21 -24 23 -32 1 -5 -12
-8 -13 -20 -2 -17 15 -16 17 14 23 27 5 39 15 19 16 -8 0 -22 2 -31 4 -9 2
-25 -3 -35 -10z"/>
<path d="M1240 990 c-7 -4 -19 -6 -27 -3 -10 4 -13 -8 -13 -51 0 -43 3 -56 15
-56 11 0 15 12 15 46 0 41 2 45 23 42 18 -2 23 -10 25 -45 4 -55 32 -61 32 -8
0 21 -5 35 -12 35 -9 0 -9 3 1 9 11 7 7 12 -16 24 -17 9 -35 12 -43 7z m-23
-77 c-2 -16 -4 -5 -4 22 0 28 2 40 4 28 2 -13 2 -35 0 -50z"/>
<path d="M1370 996 c0 -2 6 -9 13 -15 10 -8 14 -7 14 4 0 8 -6 15 -14 15 -7 0
-13 -2 -13 -4z"/>
<path d="M1627 982 c-24 -26 -22 -77 4 -95 27 -20 70 -8 86 24 27 54 -50 115
-90 71z m55 -1 c-11 -7 -11 -9 2 -14 9 -4 16 -17 16 -31 0 -18 -8 -27 -32 -35
-17 -6 -34 -9 -36 -6 -3 3 1 5 8 5 10 0 11 3 3 11 -18 18 14 79 41 79 6 0 5
-4 -2 -9z"/>
<path d="M1920 988 c0 -4 -5 -7 -11 -5 -6 1 -15 -8 -20 -20 -6 -16 -5 -23 4
-23 9 0 9 -2 0 -8 -10 -6 -9 -13 3 -30 17 -24 77 -31 90 -11 5 8 -4 10 -29 7
-20 -2 -33 0 -31 4 3 4 -3 8 -12 8 -32 0 -1 18 36 22 25 2 36 9 38 22 3 11 0
16 -7 12 -6 -4 -11 0 -11 9 0 9 -4 13 -10 10 -5 -3 -10 -2 -10 3 0 5 -7 9 -15
9 -8 0 -15 -4 -15 -9z m40 -23 c0 -1 -8 -9 -17 -16 -11 -10 -14 -10 -9 -1 5 8
1 12 -11 12 -14 0 -15 2 -4 9 12 8 41 5 41 -4z"/>
<path d="M2018 980 c-19 -16 -21 -22 -11 -38 8 -14 9 -30 3 -53 -11 -37 -7
-47 26 -59 32 -12 84 6 84 30 0 15 -19 31 -42 34 -15 2 -20 16 -6 16 16 0 28
20 28 46 0 9 -5 12 -11 9 -6 -4 -8 -13 -5 -21 3 -7 0 -16 -6 -20 -7 -5 -8 -2
-3 6 5 9 2 10 -13 6 -24 -8 -35 5 -26 29 5 11 14 15 28 11 22 -5 55 8 40 16
-23 11 -64 6 -86 -12z m56 -106 c9 -3 16 -10 16 -16 0 -14 -53 -5 -58 10 -4
13 16 16 42 6z"/>
<path d="M2150 992 c-21 -7 -30 -23 -30 -53 0 -35 31 -61 67 -57 34 4 28 22
-7 22 -14 1 -26 8 -28 17 -2 13 3 15 23 12 30 -6 63 16 43 28 -6 4 -17 5 -23
1 -20 -13 -47 -12 -42 0 2 7 18 12 36 12 19 -1 29 2 24 7 -12 12 -44 18 -63
11z"/>
<path d="M2248 989 c-10 -7 -10 -9 0 -9 6 0 12 -8 12 -17 0 -16 -2 -16 -11 -3
-9 13 -10 13 -6 0 2 -8 10 -14 16 -12 6 1 11 -2 11 -8 0 -5 5 -10 11 -10 5 0
7 5 3 11 -4 8 0 8 15 0 11 -7 21 -14 21 -17 0 -3 -5 -2 -11 1 -6 4 -18 -3 -26
-15 -12 -17 -17 -19 -24 -9 -4 7 -11 10 -16 6 -11 -12 18 -28 46 -25 14 2 27
12 32 26 7 19 4 26 -21 40 -37 21 -39 36 -4 28 19 -5 25 -3 22 6 -5 15 -50 19
-70 7z m62 -89 c0 -5 -5 -10 -11 -10 -5 0 -7 5 -4 10 3 6 8 10 11 10 2 0 4 -4
4 -10z"/>
<path d="M384 924 c-17 -7 -4 -44 15 -44 14 0 14 2 1 10 -10 6 -11 10 -2 10 6
0 12 7 12 15 0 15 -6 17 -26 9z"/>
</g>
</svg>
